<svg color="red" xmlns="http://www.w3.org/2000/svg" version="1.1" viewBox="-5.0 -10.0 110.0 135.0">
 <path d="m74.484 28.457c0.33594 0.86719 0.51953 1.8125 0.51953 2.7969v46.875c0 4.3125-3.5 7.8125-7.8125 7.8125h-46.875c-4.3164 0-7.8164-3.5-7.8164-7.8125v-46.875c0-4.3125 3.5-7.8125 7.8164-7.8125h46.875c1.0156 0 1.9922 0.19141 2.8828 0.55078-9.6602 8.5898-18.918 19.906-27.645 38.562l-20.383-13.59c-1.4336-0.95703-3.375-0.56641-4.332 0.86719-0.95703 1.4336-0.57031 3.3789 0.86719 4.3359l23.438 15.625c0.76562 0.51172 1.7188 0.65625 2.6055 0.39844 0.88281-0.25781 1.6133-0.89062 1.9844-1.7305 8.7656-19.762 18.102-31.34 27.875-40.004zm-55.035 24.41c-0.71875-0.47656-0.91016-1.4531-0.43359-2.168 0.48047-0.71875 1.4492-0.91406 2.1641-0.42969l21.902 14.598c12.934-28.387 27.055-40.043 41.961-50.52 0.70312-0.49219 1.6797-0.32031 2.1758 0.38281s0.32812 1.6797-0.37891 2.1758c-14.824 10.418-28.844 22.031-41.66 50.922-0.1875 0.41797-0.55078 0.73438-0.99219 0.86328s-0.91797 0.054688-1.3008-0.19922z" fill-rule="evenodd"/>
</svg>