<svg xmlns="http://www.w3.org/2000/svg" xmlns:xlink="http://www.w3.org/1999/xlink" version="1.1" x="0px" y="0px" viewBox="0 0 512 640" style="enable-background:new 0 0 512 512;" xml:space="preserve"><g><g><g><g>
<path d="M488.215,280.456c0-1.556-0.572-2.959-1.612-3.943c-0.983-0.988-2.382-1.611-3.893-1.611      c-1.45,0-2.854,0.623-3.842,1.556c-1.034,1.04-1.657,2.443-1.657,3.999c0,1.506,0.623,2.905,1.657,3.944      c0.988,0.932,2.392,1.606,3.842,1.606c1.511,0,2.909-0.675,3.893-1.606C487.643,283.361,488.215,281.962,488.215,280.456z       M492.158,271.114c2.336,2.438,3.842,5.708,3.842,9.342c0,3.635-1.506,7.005-3.893,9.443l-0.158,0.106      c-2.387,2.336-5.605,3.786-9.239,3.786c-3.629,0-6.903-1.505-9.286-3.893l-0.162-0.152c-2.331-2.387-3.73-5.712-3.73-9.291      c0-3.685,1.5-7.01,3.837-9.448l0.157-0.156c2.388-2.332,5.605-3.786,9.185-3.786c3.69,0,6.954,1.505,9.347,3.942      L492.158,271.114z"/><path d="M461.848,53.74c1.865,1.09,2.494,3.426,1.449,5.297c-0.359,0.624-0.826,1.09-1.449,1.455l-14.066,8.201      c-1.869,1.09-4.201,0.411-5.297-1.455c-1.033-1.82-0.414-4.207,1.455-5.297l8.308-4.825l-8.308-4.881      c-1.869-1.034-2.488-3.477-1.455-5.342c1.096-1.87,3.428-2.443,5.297-1.348L461.848,53.74z"/><path d="M383.425,464.038c2.124,0,3.837,1.713,3.837,3.893c0,2.124-1.713,3.894-3.837,3.894h-20.143      c-2.129,0-3.894-1.77-3.894-3.894c0-2.18,1.765-3.893,3.894-3.893H383.425z"/><path d="M369.979,474.47c2.072,0,3.842,1.764,3.842,3.943c0,2.129-1.77,3.893-3.842,3.893h-43.029      c-2.179,0-3.893-1.764-3.893-3.893c0-2.18,1.714-3.943,3.893-3.943H369.979z"/><path d="M260.049,200.316c-8.825,4.567-16.352,11.419-22.475,20.604c-0.674,1.146-1.921,1.871-3.27,1.871      c-2.182,0-3.893-1.764-3.893-3.943v-21.542h-19.31v172.06h22.421v-94.256c0-11.937,1.194-21.953,3.634-30.154      c1.921-6.336,4.567-11.627,7.94-15.834c1.143-1.399,2.387-2.646,3.685-3.787c5.086-4.465,10.589-7.785,16.506-10.016      c5.915-2.235,12.404-3.376,19.205-3.376c4.309,0,8.354,0.517,12.195,1.556c3.843,0.988,7.371,2.494,10.645,4.415l0.254,0.152      c3.273,2.078,6.128,4.465,8.465,7.218c2.28,2.747,4.15,5.864,5.449,9.291l0.05,0.101c1.247,3.32,2.286,7.578,2.854,12.51      c0.678,4.876,0.988,10.431,0.988,16.818v105.361h22.418V262.808c0-6.954-0.152-12.819-0.359-17.543      c-0.311-4.825-0.725-8.616-1.247-11.369c-0.776-4.045-1.972-7.836-3.422-11.364c-1.46-3.477-3.224-6.695-5.246-9.656      c-1.972-2.747-4.567-5.342-7.628-7.628c-3.062-2.388-6.752-4.41-11.004-6.229c-4.202-1.866-8.668-3.27-13.392-4.151      c-4.617-0.988-9.499-1.455-14.634-1.455C279.147,193.412,268.873,195.699,260.049,200.316z M238.145,207.635      c5.398-5.971,11.523-10.69,18.374-14.223c9.962-5.241,21.489-7.836,34.363-7.836c5.551,0,10.948,0.573,16.139,1.607      c5.141,0.988,10.122,2.595,14.896,4.623c4.775,2.022,9.028,4.41,12.611,7.162c3.735,2.752,6.797,5.915,9.291,9.448      c2.388,3.371,4.41,7.162,6.072,11.156c1.662,3.943,2.96,8.252,3.893,12.768v0.056c0.573,3.006,1.039,7.212,1.297,12.454      c0.315,5.14,0.518,11.105,0.518,17.958v110.451c0,2.129-1.764,3.893-3.893,3.893h-30.203c-2.129,0-3.894-1.764-3.894-3.893      V264.004c0-6.18-0.208-11.42-0.831-15.835c-0.521-4.303-1.297-7.886-2.438-10.639l-0.051-0.208      c-0.989-2.595-2.337-4.927-4.157-7.005c-1.764-2.078-3.994-4-6.589-5.606l-0.102-0.051c-2.701-1.612-5.555-2.854-8.668-3.685      c-3.172-0.781-6.543-1.197-10.279-1.197c-5.92,0-11.42,0.989-16.503,2.854c-5.09,1.921-9.813,4.775-14.018,8.566h-0.104      c-4.098,3.634-7.212,8.926-9.288,15.987c-2.233,7.471-3.376,16.818-3.376,27.923v98.149c0,2.129-1.71,3.893-3.893,3.893H207.21      c-2.129,0-3.842-1.764-3.842-3.893V193.412c0-2.179,1.713-3.943,3.842-3.943h27.095c2.126,0,3.84,1.764,3.84,3.943V207.635z"/><path d="M177.832,369.365v-172.06h-22.475v172.06H177.832z M185.618,193.412v179.847c0,2.129-1.713,3.893-3.893,3.893h-30.207      c-2.129,0-3.893-1.764-3.893-3.893V193.412c0-2.179,1.764-3.943,3.893-3.943h30.207      C183.905,189.469,185.618,191.233,185.618,193.412z"/><path d="M184.166,158.018c0-5.454-2.129-10.279-5.606-13.756c-3.477-3.584-8.305-5.708-13.65-5.708      c-5.244,0-9.965,2.073-13.445,5.5l-0.154,0.208c-3.477,3.477-5.606,8.302-5.606,13.756c0,5.342,2.129,10.173,5.606,13.701      c3.477,3.477,8.305,5.657,13.599,5.657c5.345,0,10.173-2.18,13.65-5.657C182.037,168.191,184.166,163.31,184.166,158.018z       M184.008,138.707c4.881,4.932,7.889,11.734,7.889,19.312c0,7.471-3.008,14.324-7.889,19.256      c-4.825,4.876-11.625,7.993-19.099,7.993s-14.169-3.117-19.048-7.993c-4.881-4.932-7.889-11.785-7.889-19.256      c0-7.578,3.008-14.38,7.836-19.312l0.208-0.208c4.932-4.825,11.575-7.786,18.894-7.786      C172.383,130.713,179.079,133.724,184.008,138.707z"/><path d="M100.859,464.246c1.767-1.871,4.362-3.011,7.215-3.011c2.803,0,5.398,1.14,7.215,3.011      c1.868,1.865,3.011,4.46,3.011,7.313c0,2.859-1.143,5.455-3.011,7.319c-1.817,1.871-4.412,3.063-7.215,3.063      c-2.854,0-5.449-1.191-7.215-3.063c-1.868-1.864-3.062-4.46-3.062-7.319C97.798,468.706,98.992,466.111,100.859,464.246z       M106.311,473.38c0.467,0.415,1.037,0.725,1.764,0.725c0.674,0,1.298-0.31,1.817-0.725c0.416-0.467,0.674-1.09,0.674-1.82      c0-0.673-0.258-1.348-0.674-1.813c-0.519-0.416-1.143-0.726-1.817-0.726c-0.728,0-1.297,0.31-1.764,0.726      c-0.466,0.466-0.727,1.141-0.727,1.813C105.583,472.29,105.845,472.913,106.311,473.38z"/><path d="M70.029,42.27c0.624,2.078-0.621,4.207-2.646,4.83l-6.954,1.815c-2.025,0.573-4.101-0.674-4.724-2.752      c-0.519-2.073,0.728-4.202,2.75-4.774l6.903-1.865C67.434,39.001,69.512,40.197,70.029,42.27z"/><path d="M60.48,59.088c0.57,2.129-0.728,4.258-2.75,4.775c-2.078,0.572-4.154-0.675-4.724-2.697l-1.817-6.853      c-0.57-2.079,0.674-4.203,2.752-4.775c2.075-0.517,4.151,0.674,4.671,2.803L60.48,59.088z"/><path d="M100.654,431.857h292.107c5.92,0,11.476-1.247,16.559-3.325c5.348-2.281,10.173-5.499,14.168-9.55      c4.055-4.044,7.268-8.875,9.498-14.272c2.078-5.135,3.324-10.797,3.324-16.763v-268.03c0-5.916-1.246-11.623-3.324-16.813      c-2.23-5.347-5.499-10.173-9.498-14.223c-3.995-3.999-8.77-7.319-14.111-9.549c-5.14-2.129-10.695-3.325-16.615-3.325H100.654      c-5.867,0-11.473,1.196-16.61,3.325c-5.243,2.23-10.122,5.5-14.119,9.549s-7.212,8.926-9.445,14.273      c-2.076,5.14-3.27,10.847-3.27,16.762v268.03c0,5.966,1.194,11.628,3.27,16.763c2.233,5.347,5.449,10.229,9.445,14.272      c3.997,4.051,8.875,7.269,14.169,9.55C89.181,430.61,94.787,431.857,100.654,431.857z M392.762,439.643H100.654      c-6.853,0-13.496-1.403-19.517-3.943c-6.28-2.596-11.937-6.438-16.661-11.212c-4.724-4.724-8.46-10.486-11.108-16.817      c-2.491-6.073-3.893-12.768-3.893-19.723v-268.03c0-6.954,1.401-13.65,3.893-19.773c2.595-6.331,6.384-11.988,11.108-16.767      c4.724-4.775,10.38-8.561,16.661-11.207c6.021-2.544,12.664-3.949,19.517-3.949h292.107c6.954,0,13.498,1.404,19.57,3.949      c6.279,2.646,11.886,6.432,16.609,11.207c4.725,4.779,8.617,10.436,11.161,16.767c2.54,6.123,3.944,12.819,3.944,19.773v268.03      c0,7.005-1.404,13.649-3.944,19.773c-2.651,6.28-6.437,12.043-11.161,16.767c-4.724,4.774-10.33,8.616-16.609,11.212      C406.26,438.239,399.615,439.643,392.762,439.643z"/><path d="M55.186,39.107c0.519,2.073-0.728,4.252-2.75,4.774c-2.129,0.568-4.205-0.73-4.724-2.752l-1.764-6.539      c-0.52-2.128,0.674-4.207,2.75-4.774c2.025-0.522,4.205,0.674,4.724,2.803L55.186,39.107z"/><path d="M50.827,47.516c0.57,2.022-0.677,4.202-2.699,4.775l-7.061,1.865c-2.022,0.573-4.202-0.674-4.721-2.696      c-0.52-2.129,0.674-4.258,2.75-4.775l7.007-1.972C48.178,44.191,50.254,45.387,50.827,47.516z"/><polygon points="40.289,268.621 32.868,270.852 30.843,263.847 30.843,263.796 38.213,261.561     "/><polygon points="34.944,277.861 27.625,280.092 25.496,273.087 25.496,273.03 32.868,270.852     "/><polygon points="30.843,263.796 30.843,263.847 23.474,266.077 21.398,259.021 28.768,256.842     "/><polygon points="23.42,266.077 25.496,273.03 25.496,273.087 18.126,275.316 16,268.256 23.42,266.026     "/></g></g></g></g>
</svg>