<svg xmlns="http://www.w3.org/2000/svg" version="1.1" viewBox="-5.0 -10.0 110.0 135.0">
 <path d="m94.137 31.176c-0.77344-8.3672-7.6484-14.676-15.992-14.676h-56.289c-8.3477 0-15.223 6.3125-15.992 14.68-1.1484 12.488-1.1484 25.148 0 37.637 0.76953 8.3711 7.6445 14.68 15.992 14.68h56.289c8.3438 0 15.219-6.3086 15.992-14.676 1.1523-12.488 1.1523-25.156 0-37.645zm-72.281-10.676h56.289c4.1641 0 7.8359 2.1055 10.004 5.3633l-36.766 21.039c-0.85156 0.49219-1.9141 0.49219-2.7695-0.003906l-36.758-21.043c2.168-3.2539 5.8359-5.3555 9.9961-5.3555zm69.113 32.168h-16.562c-1.1055 0-2 0.89453-2 2s0.89453 2 2 2h16.469c-0.097656 2.9492-0.25781 5.8945-0.48438 8.832h-26.445c-1.1055 0-2 0.89453-2 2s0.89453 2 2 2h26.059c-1.0234 5.7695-5.9492 10-11.863 10h-56.285c-6.2656 0-11.43-4.75-12.008-11.047-1.1289-12.242-1.1289-24.66 0-36.906 0.0625-0.69531 0.19141-1.3711 0.36328-2.0273l36.406 20.844c1.043 0.60156 2.2148 0.90234 3.3828 0.90234 1.1719 0 2.3359-0.30078 3.375-0.89844l36.414-20.84c0.17188 0.64844 0.29688 1.3203 0.36328 2.0117 0.64844 7.0078 0.91016 14.066 0.81641 21.121z"/>
</svg>