<svg xmlns="http://www.w3.org/2000/svg" xmlns:xlink="http://www.w3.org/1999/xlink" viewBox="0 0 48 60" version="1.1" x="0px" y="0px"><title>9.14</title><desc>Created with Sketch.</desc><g stroke="none" stroke-width="1" fill="none" fill-rule="evenodd"><g fill="#000000"><g><path d="M36.5563492,26.1412766 L25.8319249,36.8657008 C25.0485069,37.6491189 25.0473785,38.9165772 25.8284271,39.6976257 C26.614921,40.4841197 27.8773717,40.4771083 28.660352,39.694128 L42.7954921,25.5589879 L42.7972402,25.5572377 L42.7989899,25.5554901 C43.1916517,25.1628283 43.3865271,24.6515312 43.3857984,24.1404948 C43.3839134,23.6281899 43.188933,23.1170061 42.7989899,22.727063 L42.7972397,22.7253149 L42.7954921,22.7235652 L28.660352,8.58842514 C27.876934,7.80500713 26.6094757,7.80387879 25.8284271,8.58492737 C25.0419332,9.37142128 25.0489445,10.6338719 25.8319249,11.4168523 L36.5563492,22.1412766 L6.00285922,22.1412766 C4.90185079,22.1412766 4,23.0367071 4,24.1412766 C4,25.2535469 4.89671062,26.1412766 6.00285922,26.1412766 L36.5563492,26.1412766 L36.5563492,26.1412766 Z"/></g></g></g>
</svg>