<svg xmlns="http://www.w3.org/2000/svg" version="1.1" viewBox="-5.0 -10.0 110.0 135.0">
 <path d="m74.938 97.359c-9.4414-0.42969-18.641-2.6211-27.148-6.3789-8.4961-3.7461-16.316-9.0625-23.012-15.758-6.6953-6.6953-12.012-14.516-15.758-23.012-3.7578-8.5156-5.9492-17.715-6.3789-27.148-0.0625-1.4648 0.14844-2.8516 0.65234-4.125 0.49609-1.2852 1.2734-2.4648 2.3047-3.4961l12.168-12.168c1.0859-1.0859 2.5039-1.6328 3.9375-1.6406 1.4219 0 2.8516 0.51563 3.957 1.5898l13.293 12.938c0.55859 0.53516 0.98047 1.1484 1.2617 1.8203 0.28516 0.66406 0.42969 1.3906 0.42969 2.168 0 0.76953-0.125 1.4961-0.41016 2.168-0.27344 0.68359-0.69531 1.293-1.2305 1.8438l-9.0117 9.0117c3 8.0508 7.6836 15.254 13.633 21.199 5.9492 5.9492 13.148 10.633 21.199 13.633l9.0117-9.0117c0.54687-0.54688 1.1562-0.95703 1.8438-1.2305 0.67187-0.27344 1.3984-0.41016 2.168-0.41016 0.77734 0 1.5039 0.14844 2.168 0.42969 0.67188 0.28516 1.2734 0.70703 1.8203 1.2617l12.938 13.293c1.0742 1.0938 1.6016 2.5273 1.5898 3.957 0 1.4297-0.55859 2.8516-1.6406 3.9375l-12.168 12.168c-1.0312 1.0312-2.2109 1.8086-3.4961 2.3047s-2.6641 0.71484-4.125 0.65234zm-16.527-70.535c4.0742 0 7.7695 1.6523 10.441 4.3281 2.6719 2.6719 4.3281 6.3594 4.3281 10.441 0 0.60938 0.49609 1.1055 1.1055 1.1055s1.1055-0.49609 1.1055-1.1055c0-4.6953-1.9062-8.9375-4.9805-12.012-3.0742-3.0742-7.3164-4.9805-12.012-4.9805-0.60938 0-1.1055 0.49609-1.1055 1.1055s0.49609 1.1055 1.1055 1.1055zm0-10.988c7.1055 0 13.547 2.8828 18.211 7.5352 4.6641 4.6523 7.5352 11.094 7.5352 18.211 0 0.60938 0.49609 1.1055 1.1055 1.1055s1.1055-0.49609 1.1055-1.1055c0-7.7266-3.125-14.715-8.1914-19.777-5.0625-5.0625-12.051-8.1914-19.777-8.1914-0.60938 0-1.1055 0.49609-1.1055 1.1055s0.49609 1.1055 1.1055 1.1055zm0-10.98c10.148 0 19.328 4.1172 25.98 10.758 6.6406 6.6406 10.758 15.832 10.758 25.98 0 0.60938 0.49609 1.1055 1.1055 1.1055s1.1055-0.49609 1.1055-1.1055c0-10.758-4.3594-20.496-11.41-27.547s-16.789-11.41-27.547-11.41c-0.60938 0-1.1055 0.49609-1.1055 1.1055 0 0.60937 0.49609 1.1055 1.1055 1.1055zm-9.7383 84.094c8.2734 3.6523 17.199 5.7773 26.359 6.1914 1.1562 0.050781 2.2422-0.11719 3.2422-0.50391 0.98828-0.37891 1.8945-0.98828 2.7266-1.8086l12.168-12.168c0.66406-0.66406 0.98828-1.5156 1-2.3789 0-0.86328-0.31641-1.7383-0.96875-2.3984l-12.938-13.293c-0.33594-0.34766-0.70703-0.60156-1.0938-0.76953-0.39844-0.16797-0.84375-0.26172-1.3164-0.26172-0.48437 0-0.92578 0.074218-1.3281 0.24219-0.39844 0.15625-0.76953 0.41016-1.1055 0.75781l-9.5039 9.5039c-0.29297 0.29297-0.73828 0.39844-1.1562 0.25391-8.6406-3.1055-16.359-8.0508-22.684-14.391-6.3047-6.3047-11.242-13.98-14.348-22.578-0.19141-0.41016-0.11719-0.91406 0.22266-1.2617l9.5039-9.5039c0.34766-0.34766 0.60156-0.71484 0.75781-1.1055 0.16797-0.39844 0.24219-0.84375 0.24219-1.3281 0-0.47266-0.09375-0.91406-0.26172-1.3164-0.16797-0.39844-0.42969-0.76953-0.76953-1.0938l-13.293-12.938c-0.66406-0.65234-1.5352-0.96875-2.3984-0.96875s-1.7148 0.33594-2.3789 1l-12.168 12.168c-0.82031 0.82031-1.4297 1.7383-1.8086 2.7266-0.39062 0.98828-0.55859 2.0742-0.50391 3.2422 0.42188 9.1484 2.5469 18.086 6.1914 26.359 3.6406 8.2422 8.8008 15.832 15.293 22.336 6.5039 6.5039 14.086 11.664 22.336 15.293z" fill-rule="evenodd"/>
</svg>